<svg width="64" height="64" viewBox="0 0 64 64" fill="none" xmlns="http://www.w3.org/2000/svg">
<path d="M15.9961 23.9941C20.4133 23.9941 23.9941 20.4133 23.9941 15.9961C23.9941 11.5789 20.4133 7.99805 15.9961 7.99805C11.5789 7.99805 7.99805 11.5789 7.99805 15.9961C7.99805 20.4133 11.5789 23.9941 15.9961 23.9941Z" stroke="#2F7A85" stroke-width="3.99902" stroke-linecap="round" stroke-linejoin="round"/>
<path d="M21.6481 21.6479L31.9922 31.9921" stroke="#2F7A85" stroke-width="3.99902" stroke-linecap="round" stroke-linejoin="round"/>
<path d="M53.3203 10.6641L21.6481 42.3363" stroke="#2F7A85" stroke-width="3.99902" stroke-linecap="round" stroke-linejoin="round"/>
<path d="M15.9961 55.9863C20.4133 55.9863 23.9941 52.4055 23.9941 47.9883C23.9941 43.5711 20.4133 39.9902 15.9961 39.9902C11.5789 39.9902 7.99805 43.5711 7.99805 47.9883C7.99805 52.4055 11.5789 55.9863 15.9961 55.9863Z" stroke="#2F7A85" stroke-width="3.99902" stroke-linecap="round" stroke-linejoin="round"/>
<path d="M39.4573 39.457L53.3206 53.3203" stroke="#2F7A85" stroke-width="3.99902" stroke-linecap="round" stroke-linejoin="round"/>
</svg>
