<svg width="64" height="64" viewBox="0 0 64 64" fill="none" xmlns="http://www.w3.org/2000/svg">
<path d="M5.33203 25.327C5.33209 22.3603 6.23206 19.4633 7.91309 17.0188C9.59412 14.5743 11.9771 12.6972 14.7474 11.6354C17.5176 10.5736 20.5447 10.3772 23.429 11.0719C26.3132 11.7667 28.9189 13.32 30.9018 15.5267C31.0414 15.6761 31.2103 15.7951 31.3979 15.8765C31.5854 15.9579 31.7877 15.9999 31.9922 15.9999C32.1967 15.9999 32.3989 15.9579 32.5865 15.8765C32.7741 15.7951 32.9429 15.6761 33.0826 15.5267C35.0593 13.3057 37.6655 11.7393 40.5545 11.0361C43.4434 10.3329 46.478 10.5262 49.2543 11.5903C52.0306 12.6544 54.4171 14.5388 56.0959 16.9928C57.7748 19.4467 58.6665 22.3538 58.6523 25.327C58.6523 31.4322 54.6533 35.9911 50.6543 39.9901L36.0125 54.1546C35.5158 54.7252 34.9033 55.1835 34.2158 55.4991C33.5282 55.8147 32.7814 55.9804 32.025 55.9852C31.2685 55.99 30.5196 55.8338 29.8281 55.5269C29.1367 55.22 28.5184 54.7695 28.0145 54.2053L13.3301 39.9901C9.33105 35.9911 5.33203 31.4588 5.33203 25.327Z" stroke="#2F7A85" stroke-width="3.99902" stroke-linecap="round" stroke-linejoin="round"/>
</svg>
