<svg width="32" height="32" viewBox="0 0 32 32" fill="none" xmlns="http://www.w3.org/2000/svg">
<path d="M18.6621 23.9941V7.99805C18.6621 7.29098 18.3812 6.61286 17.8813 6.11289C17.3813 5.61291 16.7032 5.33203 15.9961 5.33203H5.33203C4.62496 5.33203 3.94685 5.61291 3.44687 6.11289C2.9469 6.61286 2.66602 7.29098 2.66602 7.99805V22.6611C2.66602 23.0147 2.80646 23.3537 3.05644 23.6037C3.30643 23.8537 3.64549 23.9941 3.99902 23.9941H6.66504" stroke="#2F7A85" stroke-width="1.99951" stroke-linecap="round" stroke-linejoin="round"/>
<path d="M19.9951 23.9941H11.9971" stroke="#2F7A85" stroke-width="1.99951" stroke-linecap="round" stroke-linejoin="round"/>
<path d="M25.3271 23.9941H27.9932C28.3467 23.9941 28.6858 23.8537 28.9357 23.6037C29.1857 23.3537 29.3262 23.0147 29.3262 22.6611V17.7957C29.3256 17.4931 29.2222 17.1998 29.0329 16.9639L24.394 11.1653C24.2694 11.0092 24.1112 10.8831 23.9312 10.7963C23.7513 10.7095 23.5541 10.6643 23.3543 10.6641H18.6621" stroke="#2F7A85" stroke-width="1.99951" stroke-linecap="round" stroke-linejoin="round"/>
<path d="M22.6611 26.6602C24.1335 26.6602 25.3271 25.4665 25.3271 23.9941C25.3271 22.5217 24.1335 21.3281 22.6611 21.3281C21.1887 21.3281 19.9951 22.5217 19.9951 23.9941C19.9951 25.4665 21.1887 26.6602 22.6611 26.6602Z" stroke="#2F7A85" stroke-width="1.99951" stroke-linecap="round" stroke-linejoin="round"/>
<path d="M9.33105 26.6602C10.8035 26.6602 11.9971 25.4665 11.9971 23.9941C11.9971 22.5217 10.8035 21.3281 9.33105 21.3281C7.85865 21.3281 6.66504 22.5217 6.66504 23.9941C6.66504 25.4665 7.85865 26.6602 9.33105 26.6602Z" stroke="#2F7A85" stroke-width="1.99951" stroke-linecap="round" stroke-linejoin="round"/>
</svg>
