<svg width="32" height="32" viewBox="0 0 32 32" fill="none" xmlns="http://www.w3.org/2000/svg">
<path d="M21.3281 27.9932V25.3271C21.3281 23.913 20.7664 22.5568 19.7664 21.5568C18.7665 20.5569 17.4102 19.9951 15.9961 19.9951H7.99805C6.5839 19.9951 5.22768 20.5569 4.22773 21.5568C3.22778 22.5568 2.66602 23.913 2.66602 25.3271V27.9932" stroke="#2F7A85" stroke-width="1.99951" stroke-linecap="round" stroke-linejoin="round"/>
<path d="M21.3281 4.16968C22.4715 4.4661 23.4841 5.13379 24.207 6.06796C24.9299 7.00213 25.3221 8.14989 25.3221 9.33108C25.3221 10.5123 24.9299 11.66 24.207 12.5942C23.4841 13.5284 22.4715 14.1961 21.3281 14.4925" stroke="#2F7A85" stroke-width="1.99951" stroke-linecap="round" stroke-linejoin="round"/>
<path d="M29.3262 27.9932V25.3272C29.3253 24.1458 28.9321 22.9981 28.2083 22.0644C27.4845 21.1307 26.471 20.4638 25.3271 20.1685" stroke="#2F7A85" stroke-width="1.99951" stroke-linecap="round" stroke-linejoin="round"/>
<path d="M11.9971 14.6631C14.9419 14.6631 17.3291 12.2759 17.3291 9.33105C17.3291 6.38626 14.9419 3.99902 11.9971 3.99902C9.05227 3.99902 6.66504 6.38626 6.66504 9.33105C6.66504 12.2759 9.05227 14.6631 11.9971 14.6631Z" stroke="#2F7A85" stroke-width="1.99951" stroke-linecap="round" stroke-linejoin="round"/>
</svg>
