<svg width="28" height="28" viewBox="0 0 28 28" fill="none" xmlns="http://www.w3.org/2000/svg">
<path d="M18.0489 15.032L19.8157 24.9748C19.8354 25.0919 19.819 25.2122 19.7686 25.3197C19.7181 25.4272 19.6361 25.5167 19.5334 25.5763C19.4307 25.6359 19.3122 25.6627 19.1939 25.6532C19.0755 25.6437 18.9629 25.5982 18.8711 25.5229L14.6961 22.3894C14.4946 22.2388 14.2498 22.1575 13.9982 22.1575C13.7466 22.1575 13.5018 22.2388 13.3002 22.3894L9.1183 25.5218C9.02655 25.5969 8.91406 25.6423 8.79585 25.6518C8.67764 25.6614 8.55932 25.6347 8.45669 25.5752C8.35405 25.5158 8.27198 25.4265 8.22142 25.3192C8.17086 25.212 8.15421 25.0918 8.1737 24.9748L9.93929 15.032" stroke="white" stroke-width="1.74927" stroke-linecap="round" stroke-linejoin="round"/>
<path d="M13.9941 16.3264C17.8585 16.3264 20.9912 13.1937 20.9912 9.32935C20.9912 5.46497 17.8585 2.33228 13.9941 2.33228C10.1298 2.33228 6.99707 5.46497 6.99707 9.32935C6.99707 13.1937 10.1298 16.3264 13.9941 16.3264Z" stroke="white" stroke-width="1.74927" stroke-linecap="round" stroke-linejoin="round"/>
</svg>
