<svg width="28" height="28" viewBox="0 0 28 28" fill="none" xmlns="http://www.w3.org/2000/svg">
<path d="M12.828 25.341C13.1825 25.5457 13.5847 25.6535 13.9941 25.6535C14.4036 25.6535 14.8058 25.5457 15.1603 25.341L23.3236 20.6763C23.6778 20.4718 23.972 20.1778 24.1767 19.8236C24.3814 19.4695 24.4893 19.0678 24.4897 18.6588V9.3294C24.4893 8.92039 24.3814 8.51868 24.1767 8.16457C23.972 7.81047 23.6778 7.51641 23.3236 7.31191L15.1603 2.64719C14.8058 2.44249 14.4036 2.33472 13.9941 2.33472C13.5847 2.33472 13.1825 2.44249 12.828 2.64719L4.66471 7.31191C4.3105 7.51641 4.0163 7.81047 3.81161 8.16457C3.60692 8.51868 3.49895 8.92039 3.49854 9.3294V18.6588C3.49895 19.0678 3.60692 19.4695 3.81161 19.8236C4.0163 20.1778 4.3105 20.4718 4.66471 20.6763L12.828 25.341Z" stroke="white" stroke-width="1.74927" stroke-linecap="round" stroke-linejoin="round"/>
<path d="M13.9941 25.6559V13.9941" stroke="white" stroke-width="1.74927" stroke-linecap="round" stroke-linejoin="round"/>
<path d="M3.83667 8.16333L13.9941 13.9942L24.1515 8.16333" stroke="white" stroke-width="1.74927" stroke-linecap="round" stroke-linejoin="round"/>
<path d="M8.74634 4.97949L19.2419 10.9853" stroke="white" stroke-width="1.74927" stroke-linecap="round" stroke-linejoin="round"/>
</svg>
