<svg width="28" height="28" viewBox="0 0 28 28" fill="none" xmlns="http://www.w3.org/2000/svg">
<path d="M8.16333 11.6619V25.656" stroke="white" stroke-width="1.74927" stroke-linecap="round" stroke-linejoin="round"/>
<path d="M17.4926 6.85705L16.3264 11.6617H23.1252C23.4873 11.6617 23.8444 11.746 24.1683 11.9079C24.4922 12.0699 24.7739 12.305 24.9911 12.5946C25.2084 12.8843 25.3552 13.2206 25.42 13.5768C25.4847 13.9331 25.4657 14.2995 25.3643 14.6471L22.6471 23.9765C22.5058 24.461 22.2112 24.8866 21.8075 25.1894C21.4037 25.4922 20.9127 25.6558 20.408 25.6558H4.66463C4.04605 25.6558 3.45281 25.4101 3.01541 24.9727C2.57801 24.5353 2.33228 23.9421 2.33228 23.3235V13.9941C2.33228 13.3755 2.57801 12.7822 3.01541 12.3448C3.45281 11.9074 4.04605 11.6617 4.66463 11.6617H7.88328C8.3172 11.6615 8.74245 11.5402 9.11122 11.3115C9.47999 11.0828 9.77765 10.7558 9.97074 10.3672L13.9941 2.33228C14.544 2.33909 15.0853 2.47008 15.5775 2.71548C16.0697 2.96087 16.5001 3.31432 16.8365 3.74942C17.1729 4.18452 17.4067 4.69001 17.5203 5.22813C17.6339 5.76626 17.6244 6.3231 17.4926 6.85705Z" stroke="white" stroke-width="1.74927" stroke-linecap="round" stroke-linejoin="round"/>
</svg>
