<svg width="64" height="64" viewBox="0 0 64 64" fill="none" xmlns="http://www.w3.org/2000/svg">
<path d="M58.6523 31.9922H52.0406C50.8755 31.9897 49.7416 32.3689 48.8124 33.0718C47.8832 33.7748 47.2098 34.7627 46.8952 35.8846L40.6301 58.1725C40.5897 58.3109 40.5055 58.4325 40.3901 58.519C40.2748 58.6056 40.1344 58.6523 39.9902 58.6523C39.846 58.6523 39.7057 58.6056 39.5903 58.519C39.475 58.4325 39.3908 58.3109 39.3504 58.1725L24.634 5.81191C24.5936 5.67347 24.5094 5.55186 24.394 5.46533C24.2787 5.3788 24.1384 5.33203 23.9941 5.33203C23.8499 5.33203 23.7096 5.3788 23.5942 5.46533C23.4789 5.55186 23.3947 5.67347 23.3543 5.81191L17.0892 28.0998C16.7758 29.2173 16.1064 30.202 15.1826 30.9045C14.2588 31.607 13.131 31.9889 11.9704 31.9922H5.33203" stroke="#2F7A85" stroke-width="3.99902" stroke-linecap="round" stroke-linejoin="round"/>
</svg>
