<svg width="32" height="32" viewBox="0 0 32 32" fill="none" xmlns="http://www.w3.org/2000/svg">
<path d="M26.6602 17.329C26.6602 23.994 21.9946 27.3265 16.4493 29.2594C16.1589 29.3578 15.8435 29.3531 15.5562 29.2461C9.99756 27.3265 5.33203 23.994 5.33203 17.329V7.99791C5.33203 7.64438 5.47247 7.30532 5.72246 7.05534C5.97245 6.80535 6.3115 6.66491 6.66504 6.66491C9.33105 6.66491 12.6636 5.0653 14.983 3.03912C15.2654 2.79785 15.6247 2.66528 15.9961 2.66528C16.3675 2.66528 16.7268 2.79785 17.0092 3.03912C19.3419 5.07863 22.6611 6.66491 25.3271 6.66491C25.6807 6.66491 26.0197 6.80535 26.2697 7.05534C26.5197 7.30532 26.6602 7.64438 26.6602 7.99791V17.329Z" stroke="#2F7A85" stroke-width="1.99951" stroke-linecap="round" stroke-linejoin="round"/>
</svg>
