<svg width="28" height="28" viewBox="0 0 28 28" fill="none" xmlns="http://www.w3.org/2000/svg">
<path d="M11.6617 13.9941H16.3265" stroke="white" stroke-width="1.74927" stroke-linecap="round" stroke-linejoin="round"/>
<path d="M11.6617 9.32935H16.3265" stroke="white" stroke-width="1.74927" stroke-linecap="round" stroke-linejoin="round"/>
<path d="M16.3265 24.4898V20.9913C16.3265 20.3727 16.0807 19.7795 15.6433 19.3421C15.2059 18.9047 14.6127 18.6589 13.9941 18.6589C13.3755 18.6589 12.7823 18.9047 12.3449 19.3421C11.9075 19.7795 11.6617 20.3727 11.6617 20.9913V24.4898" stroke="white" stroke-width="1.74927" stroke-linecap="round" stroke-linejoin="round"/>
<path d="M6.99711 11.6619H4.66475C4.04617 11.6619 3.45293 11.9076 3.01553 12.345C2.57813 12.7824 2.3324 13.3756 2.3324 13.9942V22.1575C2.3324 22.7761 2.57813 23.3693 3.01553 23.8067C3.45293 24.2441 4.04617 24.4898 4.66475 24.4898H23.3236C23.9422 24.4898 24.5354 24.2441 24.9728 23.8067C25.4102 23.3693 25.656 22.7761 25.656 22.1575V10.4957C25.656 9.87711 25.4102 9.28386 24.9728 8.84646C24.5354 8.40906 23.9422 8.16333 23.3236 8.16333H20.9913" stroke="white" stroke-width="1.74927" stroke-linecap="round" stroke-linejoin="round"/>
<path d="M6.99707 24.4897V5.83089C6.99707 5.21231 7.2428 4.61907 7.6802 4.18167C8.1176 3.74426 8.71085 3.49854 9.32943 3.49854H18.6589C19.2774 3.49854 19.8707 3.74426 20.3081 4.18167C20.7455 4.61907 20.9912 5.21231 20.9912 5.83089V24.4897" stroke="white" stroke-width="1.74927" stroke-linecap="round" stroke-linejoin="round"/>
</svg>
